# xmcd
#
# Track frame offsets:
# 150
# 16633
# 29986
# 42393
# 56632
# 64942
# 78690
# 95667
# 108324
# 132030
#
# Disc length: 1976 seconds
#
#
# Revision: 4
# Processed by: cddbd v1.5.2PL0 Copyright (c) Steve Scherf et al.
# Submitted via: FreeRIP 2.96 
#
DISCID=8807b60a
DTITLE=Piper, Anni [AUS] - Jailbait
DYEAR=2004
DGENRE=Blues
TTITLE0=Jailbait [from 'Jailbait', Aug 2004] [FLVox]
TTITLE1=Live to Play [from 'Jailbait', Aug 2004] [FLVox]
TTITLE2=Two's Company [from 'Jailbait', Aug 2004] [FLVox]
TTITLE3=Come in My Kitchen [from 'Jailbait', Aug 2004] [FLVox]
TTITLE4=Man's Woman [from 'Jailbait', Aug 2004] [FLVox]
TTITLE5=Hitch-Hiker Shuffle [from 'Jailbait', Aug 2004] [FLVox]
TTITLE6=Blow My Cares Away [from 'Jailbait', Aug 2004] [FLVox]
TTITLE7=Real Blues Mama [from 'Jailbait', Aug 2004] [FLVox]
TTITLE8=Ain't Nobody Watchin' [from 'Jailbait', Aug 2004] [FLVox]
TTITLE9=I Couldn't Tell You [from 'Jailbait', Aug 2004] [FLVox]
EXTD=Line-up/musicians:\n \n- Anni Piper - vocals, bass\n- Allen Vander Linden - guitars (except tracks 4 and 6]\n- Marcus 'Bro' Adamson - guitar, slide guitar (tracks 1, 2, 3, 4 and 6]\n- Wayne Olbrich - blues harp\n- Shane Elliott - keyboards\n- Andrew 'Ja
EXTD=cko' Jackson - drums (tracks 7, 8 and 9]\n- Trent Batchelor - drums (except tracks 7, 8 and 9]\n- Jeff Cripps - percussion
EXTT0=
EXTT1=
EXTT2=
EXTT3=
EXTT4=
EXTT5=
EXTT6=
EXTT7=
EXTT8=
EXTT9=
PLAYORDER=
